<?xml version="1.0" standalone="no"?>
<!DOCTYPE svg PUBLIC "-//W3C//DTD SVG 20010904//EN" "http://www.w3.org/TR/2001/REC-SVG-20010904/DTD/svg10.dtd">
<svg version="1.0" xmlns="http://www.w3.org/2000/svg" width="1024.000000pt" height="1024.000000pt"
  viewBox="0 0 1024.000000 1024.000000" preserveAspectRatio="xMidYMid meet">

  <g transform="translate(0.000000,1024.000000) scale(0.100000,-0.100000)" fill="#FFFFFF" stroke="none">
    <path d="M5010 9355 c-284 -64 -464 -338 -410 -626 13 -72 69 -184 122 -244
51 -58 140 -117 220 -146 l58 -22 -2 -489 -3 -489 -65 -22 c-130 -44 -232
-126 -303 -244 -54 -89 -69 -145 -75 -270 -4 -94 -1 -122 16 -180 75 -245 297
-413 546 -413 99 0 174 18 271 65 139 67 235 177 292 332 101 280 -60 607
-350 710 l-77 28 2 489 3 488 60 22 c162 59 287 196 330 361 18 73 19 193 1
260 -45 172 -181 320 -344 374 -82 28 -209 35 -292 16z m245 -258 c109 -55
169 -148 169 -262 0 -82 -23 -141 -82 -200 -150 -152 -407 -104 -494 93 -65
146 25 336 184 388 64 21 162 12 223 -19z m-35 -2003 c145 -43 240 -168 240
-314 0 -126 -70 -234 -188 -292 -59 -29 -76 -33 -147 -33 -65 1 -91 5 -135 26
-203 95 -263 350 -120 512 90 102 220 140 350 101z" />
    <path d="M4185 8945 c-477 -124 -956 -345 -1309 -604 l-89 -65 -107 112 -107
112 -93 -95 c-90 -91 -92 -95 -77 -117 8 -13 134 -144 280 -293 l264 -270 39
32 c58 48 249 183 329 233 98 61 352 189 465 234 135 55 327 119 453 151 l107
28 0 289 c0 224 -3 288 -12 288 -7 -1 -71 -16 -143 -35z" />
    <path d="M5916 8972 c-3 -3 -6 -132 -6 -287 l0 -283 116 -31 c260 -72 531
-179 744 -294 134 -72 379 -234 465 -306 l60 -51 69 73 c39 39 166 172 285
295 l215 223 -95 95 -94 96 -106 -113 -107 -112 -103 76 c-308 226 -733 433
-1126 547 -164 47 -309 80 -317 72z" />
    <path d="M4606 8133 c-452 -83 -860 -243 -1211 -476 -173 -115 -301 -222 -465
-386 -429 -431 -711 -914 -858 -1471 -137 -514 -132 -1058 14 -1642 13 -53 24
-99 24 -103 0 -3 -71 -4 -157 -3 l-157 3 -23 85 c-54 195 -106 507 -115 695
l-3 50 -277 3 -278 2 0 -43 c0 -180 111 -752 196 -1010 l26 -77 744 0 744 0
-16 38 c-80 188 -154 421 -187 598 -47 244 -52 299 -52 574 0 291 15 423 75
666 176 720 660 1335 1310 1663 230 116 478 206 696 250 53 11 98 22 100 24 2
2 3 134 2 294 l-3 290 -129 -24z" />
    <path d="M5510 7864 l0 -294 23 -4 c581 -121 1035 -355 1411 -730 382 -381
630 -869 727 -1430 27 -154 37 -551 19 -720 -27 -250 -96 -529 -193 -783 l-54
-143 743 0 c699 0 743 1 748 18 2 9 19 63 35 118 85 278 161 666 177 902 l7
92 -279 -2 -279 -3 -7 -100 c-13 -183 -52 -407 -111 -640 l-23 -90 -157 -3
c-86 -1 -157 0 -157 3 0 3 16 76 36 162 87 385 116 685 96 991 -29 438 -133
825 -327 1208 -161 320 -351 580 -615 845 -284 285 -533 459 -885 622 -288
133 -576 218 -912 271 l-23 3 0 -293z" />
    <path d="M2104 8040 c-43 -45 -81 -83 -83 -86 -3 -2 22 -33 55 -67 33 -34 72
-76 88 -94 l29 -32 -79 -88 c-402 -446 -665 -897 -844 -1448 -64 -198 -126
-458 -152 -635 l-23 -160 -147 0 -148 0 0 -125 0 -125 425 0 c333 0 425 3 425
13 0 6 7 77 15 157 76 776 404 1486 950 2060 63 66 115 125 115 130 0 11 -533
580 -544 580 -1 0 -38 -36 -82 -80z" />
    <path d="M8035 8097 c-40 -45 -322 -345 -417 -444 -54 -56 -98 -106 -98 -112
0 -6 48 -61 107 -123 363 -384 635 -830 797 -1308 76 -227 141 -538 166 -802
l13 -128 418 0 418 0 3 121 c2 66 1 123 -1 125 -2 2 -68 4 -146 4 l-141 0 -18
118 c-114 770 -435 1479 -925 2043 -53 61 -109 126 -125 146 l-29 34 88 89
c101 102 102 82 -4 193 -36 37 -70 67 -76 66 -5 0 -19 -10 -30 -22z" />
    <path d="M4120 6978 c-29 -32 -27 -81 6 -107 36 -28 60 -26 95 8 34 35 36 59
8 95 -27 34 -79 36 -109 4z" />
    <path d="M6022 6984 c-48 -34 -14 -134 47 -134 31 0 71 43 71 77 0 64 -64 95
-118 57z" />
    <path d="M3773 6720 c-96 -22 -139 -116 -96 -207 45 -95 188 -97 250 -4 69
103 -31 239 -154 211z" />
    <path d="M6408 6720 c-66 -12 -108 -67 -108 -142 0 -110 107 -171 209 -118
152 77 69 289 -101 260z" />
    <path d="M3319 6505 c-51 -28 -45 -112 10 -135 79 -32 142 71 77 127 -31 26
-50 28 -87 8z" />
    <path d="M6850 6507 c-52 -26 -52 -105 0 -132 78 -40 153 70 84 124 -31 24
-49 26 -84 8z" />
    <path d="M3588 5990 c-170 -31 -320 -119 -415 -244 -156 -207 -175 -491 -46
-704 101 -166 255 -269 453 -302 135 -23 271 -3 405 60 74 34 225 141 225 159
0 9 -236 201 -247 201 -5 0 -25 -18 -45 -40 -123 -130 -356 -124 -474 13 -62
73 -79 121 -79 227 0 86 3 101 30 153 102 203 373 248 529 88 l39 -40 121 105
c67 58 122 109 124 113 4 13 -136 116 -204 149 -33 17 -88 38 -122 47 -75 19
-229 27 -294 15z" />
    <path d="M4965 5989 c-151 -23 -275 -97 -342 -202 -81 -128 -60 -336 43 -426
75 -66 157 -95 392 -136 116 -20 138 -27 163 -51 34 -33 38 -70 9 -107 -27
-35 -81 -51 -165 -50 -121 0 -213 36 -303 118 l-38 34 -92 -91 c-51 -49 -92
-94 -92 -98 0 -16 87 -93 150 -134 120 -78 222 -108 370 -107 165 0 305 53
401 152 74 74 102 144 102 249 0 86 -20 144 -73 203 -65 74 -154 108 -390 147
-156 26 -185 35 -210 67 -27 35 -25 75 5 112 44 51 137 69 242 47 73 -15 95
-25 173 -84 l45 -34 43 49 c24 26 64 72 90 102 l47 54 -50 43 c-55 49 -185
116 -255 133 -69 16 -198 21 -265 10z" />
    <path d="M5930 5365 l0 -615 150 0 150 0 2 247 3 246 118 -237 c64 -131 117
-242 117 -247 0 -5 40 -9 88 -9 l89 0 119 243 119 242 3 -242 2 -243 150 0
150 0 0 615 0 615 -150 0 -151 0 -52 -112 c-29 -62 -102 -222 -162 -355 l-110
-243 -53 113 c-30 61 -93 200 -142 307 -48 107 -98 216 -111 243 l-23 47 -153
0 -153 0 0 -615z" />
    <path d="M7035 4510 c-33 -15 -274 -123 -535 -240 -261 -117 -548 -246 -638
-286 l-163 -74 -431 0 -430 0 -116 -102 -115 -103 169 -3 c93 -1 363 -1 599 0
l430 3 645 289 c355 159 671 300 703 314 31 14 57 28 57 32 0 7 -99 182 -109
191 -3 4 -33 -6 -66 -21z" />
    <path d="M2880 4415 c0 -10 494 -624 718 -892 l144 -173 969 0 c956 0 969 0
989 -20 26 -26 25 -50 0 -78 l-21 -22 -1024 0 -1025 0 -47 37 c-242 185 -607
102 -741 -169 -71 -144 -67 -302 11 -452 62 -120 130 -182 286 -260 172 -87
553 -282 571 -294 11 -7 16 -34 18 -111 l3 -103 -23 7 c-13 4 -113 51 -223
106 -217 106 -359 191 -501 300 l-91 69 -140 -142 c-220 -224 -358 -370 -358
-378 0 -5 38 -49 85 -99 l84 -92 106 106 c58 58 109 105 114 105 5 0 38 -22
75 -49 357 -262 792 -460 1272 -581 134 -33 420 -85 582 -105 l47 -6 0 -115 0
-114 110 0 110 0 0 293 c0 160 3 342 7 404 l6 111 -54 6 c-30 3 -103 10 -164
16 -282 29 -671 125 -825 205 l-30 16 0 137 c0 75 3 154 6 174 l6 37 51 -25
c85 -43 300 -122 445 -163 153 -43 330 -75 502 -91 409 -36 875 44 1289 224
55 24 103 41 106 38 7 -7 6 -301 -1 -329 -7 -26 -55 -48 -214 -96 -255 -79
-485 -122 -757 -142 l-93 -7 0 -404 0 -404 115 0 115 0 0 115 c0 87 3 115 13
115 7 0 68 7 135 15 620 77 1281 331 1734 667 43 32 83 58 89 58 6 0 56 -48
112 -106 l102 -105 94 95 94 94 -194 203 c-107 111 -219 229 -250 263 l-57 61
-48 -40 c-152 -125 -370 -260 -609 -377 -88 -43 -163 -78 -167 -78 -5 0 -8 47
-8 105 0 58 3 105 8 105 20 0 601 305 667 350 99 69 167 145 209 233 76 160
74 300 -7 451 -151 283 -549 338 -771 106 -44 -46 -106 -142 -106 -165 0 -3
43 -5 96 -5 l97 0 44 41 c64 59 124 83 208 83 170 1 295 -129 295 -305 0 -221
-223 -369 -421 -277 -91 42 -161 130 -176 222 l-6 36 -168 0 -169 0 0 -115 c0
-63 -4 -115 -8 -115 -5 0 -19 12 -33 26 -13 14 -36 35 -51 46 l-28 19 -44 -26
-45 -26 -37 73 c-20 40 -37 74 -39 76 -1 1 -43 -17 -92 -41 l-90 -44 24 -58
c13 -32 21 -61 16 -66 -14 -14 -252 -79 -367 -99 -61 -11 -157 -23 -213 -28
l-103 -8 0 82 0 83 -90 3 c-68 2 -91 0 -95 -10 -3 -8 -5 -47 -5 -88 0 -72 -1
-74 -22 -69 -13 2 -68 9 -123 15 -138 16 -281 46 -405 86 -144 47 -138 41
-108 112 l26 59 -90 44 c-103 50 -97 52 -140 -46 -12 -30 -26 -55 -29 -55 -4
0 -26 11 -50 24 l-43 25 -54 -50 c-29 -27 -57 -49 -60 -49 -4 0 -7 50 -7 110
l0 110 -160 0 -160 0 -17 -59 c-33 -112 -128 -197 -245 -221 -127 -27 -264 45
-325 169 -30 61 -33 217 -5 269 30 55 88 112 141 140 75 38 179 38 258 -1 31
-15 70 -43 87 -62 l30 -35 1085 0 c1195 0 1142 -3 1220 62 75 61 111 166 87
254 -17 62 -68 131 -120 162 l-46 27 -760 6 c-418 3 -762 6 -765 7 -2 1 7 10
20 19 14 9 123 96 243 192 120 97 242 194 272 217 l54 40 458 2 458 1 148 186
c81 102 147 187 147 190 0 3 -709 5 -1575 5 -866 0 -1575 -2 -1575 -5z m3734
-1893 c23 -24 63 -57 89 -74 l48 -31 -28 -16 c-15 -9 -65 -36 -110 -59 l-83
-43 0 162 0 162 22 -29 c12 -16 40 -48 62 -72z m-2884 -67 c0 -80 -2 -145 -5
-145 -11 0 -216 112 -212 116 2 2 30 21 63 42 32 21 77 59 99 84 22 26 43 47
48 47 4 1 7 -64 7 -144z m1468 -213 l3 -132 -76 0 -75 0 0 130 0 129 58 4 c31
2 64 3 72 3 12 -1 15 -24 18 -134z" />
    <path d="M2587 3358 c-21 -17 -38 -63 -30 -85 13 -36 36 -53 74 -53 30 0 42 6
58 29 28 38 26 66 -4 96 -26 27 -71 33 -98 13z" />
    <path d="M7570 3345 c-47 -50 -17 -128 51 -128 23 0 39 8 56 27 30 35 29 71
-2 101 -32 33 -74 33 -105 0z" />
    <path d="M1540 3302 c0 -13 103 -193 185 -323 101 -160 263 -378 379 -509 42
-47 76 -88 76 -91 0 -4 -37 -43 -81 -88 -94 -94 -96 -72 22 -195 l66 -69 69
74 c229 245 409 437 430 456 l23 21 -91 109 c-156 187 -317 412 -413 576 l-27
48 -319 -3 c-176 -1 -319 -4 -319 -6z" />
    <path d="M8075 3302 c-6 -4 -33 -43 -60 -87 -93 -151 -220 -328 -346 -485
l-126 -156 204 -219 c112 -121 227 -244 256 -273 l53 -53 87 88 86 88 -86 86
-85 87 82 93 c202 229 328 408 514 732 31 54 56 100 56 102 0 8 -624 5 -635
-3z" />
    <path d="M3235 2925 c-16 -15 -25 -36 -25 -55 0 -39 39 -80 75 -80 16 0 38 12
56 29 17 18 29 40 29 56 0 36 -41 75 -80 75 -19 0 -40 -9 -55 -25z" />
    <path d="M6929 2935 c-33 -18 -42 -59 -24 -102 16 -39 52 -51 96 -33 54 23 66
84 24 125 -27 28 -57 31 -96 10z" />
  </g>
</svg>